<svg width="14" height="9" viewBox="0 0 14 9" fill="none" xmlns="http://www.w3.org/2000/svg">
<path d="M4.719 5.701H5.071V8.011L0.275 8L0.374 6.427C1.48867 6.03833 2.343 5.58 2.937 5.052C3.531 4.524 3.828 3.985 3.828 3.435C3.828 3.11967 3.71433 2.874 3.487 2.698C3.25967 2.51467 2.96267 2.423 2.596 2.423C2.30267 2.423 2.002 2.46333 1.694 2.544C1.39333 2.62467 1.11467 2.73833 0.858 2.885L0.891 3.347L0.539 3.402L0.242 1.246C0.572 1.01867 1.001 0.831666 1.529 0.685C2.06433 0.538333 2.57033 0.464999 3.047 0.464999C3.74367 0.464999 4.30467 0.633666 4.73 0.970999C5.15533 1.301 5.368 1.77033 5.368 2.379C5.368 2.98033 5.16633 3.567 4.763 4.139C4.35967 4.70367 3.84633 5.19867 3.223 5.624C2.607 6.04933 1.97633 6.36467 1.331 6.57L4.686 6.13L4.719 5.701ZM5.94971 7.615L6.48871 7.604V1.026L5.94971 1.015V0.63L8.07271 0.652L9.63471 0.52C10.7274 0.52 11.5707 0.824333 12.1647 1.433C12.766 2.04167 13.0667 2.92167 13.0667 4.073C13.0667 4.85033 12.9164 5.536 12.6157 6.13C12.315 6.71667 11.864 7.175 11.2627 7.505C10.6614 7.835 9.92804 8 9.06271 8H5.94971V7.615ZM8.62271 7.615C9.40738 7.615 10.016 7.34367 10.4487 6.801C10.8887 6.25833 11.1087 5.44067 11.1087 4.348C11.1087 3.622 10.984 3.01333 10.7347 2.522C10.4927 2.02333 10.159 1.653 9.73371 1.411C9.31571 1.16167 8.84271 1.037 8.31471 1.037V7.615H8.62271Z" fill="black"/>
</svg>
