<svg width="14" height="9" viewBox="0 0 14 9" fill="none" xmlns="http://www.w3.org/2000/svg">
<path d="M3.146 3.699C3.54933 3.699 3.90867 3.77967 4.224 3.941C4.53933 4.095 4.785 4.315 4.961 4.601C5.137 4.87967 5.225 5.195 5.225 5.547C5.225 5.99433 5.08933 6.41967 4.818 6.823C4.54667 7.22633 4.16167 7.55267 3.663 7.802C3.17167 8.044 2.607 8.165 1.969 8.165C1.66833 8.165 1.37133 8.132 1.078 8.066C0.784667 8.00733 0.524333 7.923 0.297 7.813L0.792 6.449C1.738 6.91833 2.66933 7.23 3.586 7.384C3.65933 7.14933 3.696 6.90367 3.696 6.647C3.696 6.053 3.465 5.60933 3.003 5.316C2.54833 5.02267 1.815 4.887 0.803 4.909V4.568L3.355 2.115L0.803 2.566L0.77 2.995H0.418V0.63H4.917V1.807L2.189 3.831C2.497 3.743 2.816 3.699 3.146 3.699ZM5.93897 7.615L6.47797 7.604V1.026L5.93897 1.015V0.63L8.06197 0.652L9.62397 0.52C10.7166 0.52 11.56 0.824333 12.154 1.433C12.7553 2.04167 13.056 2.92167 13.056 4.073C13.056 4.85033 12.9056 5.536 12.605 6.13C12.3043 6.71667 11.8533 7.175 11.252 7.505C10.6506 7.835 9.9173 8 9.05197 8H5.93897V7.615ZM8.61197 7.615C9.39664 7.615 10.0053 7.34367 10.438 6.801C10.878 6.25833 11.098 5.44067 11.098 4.348C11.098 3.622 10.9733 3.01333 10.724 2.522C10.482 2.02333 10.1483 1.653 9.72297 1.411C9.30497 1.16167 8.83197 1.037 8.30397 1.037V7.615H8.61197Z" fill="black"/>
</svg>
