<svg width="489" height="488" viewBox="0 0 489 488" fill="none" xmlns="http://www.w3.org/2000/svg">
<g filter="url(#filter0_d_177_304)">
<path d="M468.645 185.862C463.451 121.82 460.854 89.7989 448.765 69.0818C414.152 9.76254 313.517 -4.346 249.958 1.06428C164.868 8.30541 67.5257 57.2207 24.6772 151.664C-14.2404 237.445 3.70467 334.544 62.3451 398.061C169.843 514.499 391.585 493.709 445.753 417.306C467.37 386.814 468.928 338.111 471.218 266.569C472.319 232.131 470.171 204.687 468.645 185.862Z" fill="#F4F7FA"/>
<path d="M427.87 39.1811C422.369 34.6297 414.024 32.1508 406.97 31.6502C356.966 28.1068 349.668 132.628 357.333 155.987C364.997 179.346 360.031 187.016 320.649 199.237C281.267 211.458 300.16 234.988 304.96 248.749C309.76 262.509 319.266 274.134 290.556 287.807C261.847 301.48 271.825 309.952 271.825 309.952C271.825 309.952 324.768 364.108 321.844 346.77C318.919 329.431 324.218 303.251 371.687 301.261C392.133 300.403 423.442 290.651 430.375 268.758C431.99 263.659 433.113 255.873 431.885 250.597C430.181 243.277 425.378 237.51 422.71 230.62C416.494 214.566 432.086 202.809 441.058 192.078C445.744 186.476 450.425 180.731 454.012 174.344C461.46 161.082 458.671 146.86 450.561 134.636C446.671 128.775 441.268 122.555 439.57 115.563C437.748 108.052 439.337 97.7907 439.769 90.0644C440.109 84.0044 440.686 77.9684 440.345 71.893C439.714 60.5959 437.068 46.7908 427.87 39.1811Z" fill="url(#paint0_linear_177_304)"/>
<g opacity="0.8">
<g opacity="0.8">
<path opacity="0.8" d="M267.661 340.348C267.318 340.471 266.929 340.326 266.756 339.995C266.567 339.633 266.706 339.186 267.068 338.997C267.291 338.88 289.58 327.157 314.444 307.847C337.355 290.054 367.203 262 379.287 229.386C389.38 202.148 398.584 157.117 404.541 105.843C409.883 59.8639 410.727 25.8594 408.457 19.5475C408.318 19.1635 408.519 18.74 408.903 18.6012C409.287 18.4623 409.71 18.6629 409.849 19.0469C412.504 26.432 410.819 64.6314 406.012 106.014C400.043 157.401 390.808 202.556 380.675 229.9C368.466 262.849 338.403 291.119 315.332 309.031C290.365 328.417 267.978 340.19 267.755 340.307C267.723 340.322 267.692 340.336 267.661 340.348Z" fill="white"/>
</g>
<g opacity="0.8">
<path opacity="0.8" d="M404.46 114.756C404.078 114.893 403.689 114.787 403.548 114.404C403.363 113.899 384.722 63.7473 360.684 52.4245C360.314 52.2513 360.165 51.833 360.338 51.4627C360.513 51.0925 360.957 50.9467 361.325 51.1199C385.913 62.7016 404.167 111.8 404.933 113.89C405.074 114.274 404.848 114.617 404.464 114.754C404.462 114.756 404.46 114.756 404.46 114.756Z" fill="white"/>
</g>
<g opacity="0.8">
<path opacity="0.8" d="M395.368 172.916C395.084 173.019 394.751 172.938 394.547 172.689C394.288 172.374 394.333 171.908 394.648 171.649C394.785 171.536 408.51 160.278 425.444 150.831C448.324 138.066 465.86 134.502 477.561 140.24C477.928 140.42 478.079 140.862 477.899 141.229C477.719 141.596 477.277 141.747 476.91 141.567C449.985 128.367 396.128 172.343 395.588 172.789C395.521 172.845 395.445 172.888 395.368 172.916Z" fill="white"/>
</g>
<g opacity="0.8">
<path opacity="0.8" d="M335.617 291.796C335.542 291.824 335.463 291.837 335.379 291.839C334.971 291.846 334.635 291.52 334.628 291.111C334.625 290.896 334.244 269.379 329.741 246.706C325.611 225.918 317.084 199.88 299.914 193.88C299.528 193.745 299.324 193.323 299.46 192.939C299.594 192.553 300.017 192.349 300.401 192.485C314.719 197.487 325.078 215.639 331.195 246.438C335.722 269.24 336.103 290.872 336.106 291.088C336.113 291.414 335.907 291.692 335.617 291.796Z" fill="white"/>
</g>
<g opacity="0.8">
<path opacity="0.8" d="M366.172 257.032C365.872 257.14 365.526 257.044 365.327 256.775C365.083 256.446 365.154 255.983 365.481 255.741C367.862 253.981 424.029 212.689 445.932 216.632C446.335 216.704 446.601 217.089 446.529 217.491C446.457 217.893 446.073 218.161 445.67 218.087C424.387 214.256 366.938 256.502 366.361 256.929C366.302 256.976 366.237 257.008 366.172 257.032Z" fill="white"/>
</g>
</g>
<path d="M471.757 193.129C468.121 186.985 461.106 181.829 454.638 178.971C408.781 158.717 366.548 254.604 365.855 279.178C365.163 303.752 357.894 309.289 316.702 307.463C275.508 305.638 285.323 334.174 285.185 348.747C285.046 363.32 290.057 377.475 258.414 380.627C226.772 383.78 233.293 395.127 233.293 395.127C233.293 395.127 264.79 464.003 267.905 446.697C271.02 429.392 284.864 406.549 330.205 420.74C349.734 426.851 382.498 428.269 396.43 410.013C399.675 405.762 403.366 398.816 403.995 393.435C404.867 385.971 402.299 378.918 402.119 371.533C401.701 354.322 420.352 348.534 432.426 341.473C438.729 337.787 445.079 333.964 450.616 329.168C462.112 319.21 464.301 304.883 460.806 290.636C459.129 283.805 456.148 276.123 456.918 268.969C457.744 261.286 462.712 252.166 465.733 245.041C468.102 239.454 470.689 233.969 472.424 228.137C475.655 217.287 477.837 203.401 471.757 193.129Z" fill="url(#paint1_linear_177_304)"/>
<g opacity="0.8">
<g opacity="0.8">
<path opacity="0.8" d="M219.09 422.319C218.727 422.319 218.41 422.05 218.358 421.679C218.304 421.275 218.586 420.901 218.991 420.846C219.239 420.812 244.181 417.322 274.112 407.564C301.691 398.574 339.272 382.273 361.679 355.673C380.394 333.455 404.293 294.197 427.247 247.962C447.83 206.504 460.13 174.79 460.13 168.082C460.13 167.674 460.461 167.343 460.869 167.343C461.277 167.343 461.608 167.674 461.608 168.082C461.608 175.93 447.097 211.306 428.57 248.621C405.565 294.956 381.596 334.323 362.809 356.626C340.172 383.499 302.315 399.928 274.544 408.978C244.491 418.772 219.44 422.276 219.19 422.31C219.159 422.317 219.125 422.319 219.09 422.319Z" fill="white"/>
</g>
<g opacity="0.8">
<path opacity="0.8" d="M424.158 256.475C423.752 256.475 423.421 256.167 423.419 255.76C423.416 255.222 422.845 201.683 404.056 182.895C403.766 182.607 403.766 182.142 404.056 181.854C404.344 181.566 404.812 181.568 405.102 181.856C424.321 201.075 424.883 253.525 424.898 255.75C424.902 256.158 424.573 256.475 424.163 256.475C424.16 256.475 424.158 256.475 424.158 256.475Z" fill="white"/>
</g>
<g opacity="0.8">
<path opacity="0.8" d="M395.923 307.978C395.62 307.978 395.335 307.79 395.227 307.488C395.09 307.104 395.289 306.68 395.674 306.541C395.841 306.481 412.565 300.531 431.698 297.372C457.548 293.102 475.255 295.683 484.327 305.042C484.611 305.335 484.603 305.803 484.31 306.087C484.016 306.372 483.548 306.363 483.264 306.07C462.394 284.539 396.833 307.697 396.173 307.934C396.089 307.964 396.005 307.978 395.923 307.978Z" fill="white"/>
</g>
<g opacity="0.8">
<path opacity="0.8" d="M299.469 399.627C299.39 399.627 299.309 399.613 299.229 399.587C298.843 399.455 298.635 399.035 298.769 398.648C298.838 398.444 305.762 378.068 309.195 355.208C312.343 334.249 313.13 306.862 299.002 295.405C298.685 295.148 298.637 294.682 298.894 294.365C299.151 294.047 299.618 293.998 299.935 294.257C311.715 303.809 315.322 324.397 310.654 355.446C307.2 378.435 300.238 398.92 300.168 399.126C300.063 399.433 299.775 399.627 299.469 399.627Z" fill="white"/>
</g>
<g opacity="0.8">
<path opacity="0.8" d="M339.982 377.252C339.663 377.252 339.37 377.045 339.274 376.726C339.156 376.335 339.378 375.922 339.769 375.805C342.605 374.955 409.431 355.104 428.708 366.226C429.061 366.43 429.183 366.882 428.979 367.236C428.775 367.589 428.322 367.71 427.969 367.506C409.237 356.7 340.882 377.016 340.195 377.221C340.124 377.242 340.052 377.252 339.982 377.252Z" fill="white"/>
</g>
</g>
<path d="M318.041 20.3926L317.513 24.1743C315.759 24.2549 314.035 24.4812 312.356 24.8583L310.927 21.3303C310.538 20.3686 309.435 19.9109 308.467 20.3103L302.403 22.808C301.433 23.2075 300.96 24.3149 301.347 25.2783L302.784 28.8509C301.315 29.7869 299.926 30.8463 298.634 32.0189L295.589 29.6566C294.766 29.0189 293.573 29.1766 292.923 30.0097L288.85 35.2212C288.197 36.056 288.336 37.2526 289.159 37.892L292.215 40.268C291.401 41.7971 290.717 43.412 290.165 45.0971L286.286 44.588C285.243 44.4508 284.273 45.1897 284.119 46.2388L283.143 52.8114C282.987 53.864 283.707 54.8308 284.751 54.968L288.643 55.4788C288.689 57.2531 288.883 58.9982 289.227 60.6971L285.576 62.2194C284.592 62.6291 284.108 63.7622 284.496 64.7479L286.928 70.9296C287.318 71.9205 288.434 72.3885 289.421 71.9754L293.074 70.4462C293.993 71.9411 295.04 73.3502 296.203 74.6599L293.768 77.8211C293.11 78.6765 293.251 79.9005 294.084 80.5553L299.302 84.649C300.137 85.3039 301.349 85.1393 302.006 84.2805L304.411 81.1399C305.947 81.9576 307.572 82.6382 309.267 83.1816L308.72 87.1005C308.571 88.1736 309.303 89.1559 310.356 89.293L316.944 90.157C317.998 90.2959 318.97 89.5365 319.117 88.4633L319.649 84.5736C321.44 84.4965 323.201 84.265 324.913 83.8793L326.359 87.4725C326.76 88.4702 327.883 88.9416 328.867 88.525L335.011 85.921C335.993 85.5045 336.461 84.361 336.058 83.3668L334.613 79.7993C336.113 78.8308 337.525 77.7319 338.835 76.5165L341.839 78.8513C342.679 79.5045 343.882 79.3399 344.527 78.4845L348.55 73.1496C349.193 72.2976 349.033 71.0822 348.195 70.4325L345.219 68.1251C346.03 66.5531 346.704 64.8919 347.239 63.1622L350.959 63.6508C352.003 63.7879 352.959 63.0422 353.095 61.9862L353.94 55.3965C354.075 54.3457 353.34 53.3822 352.297 53.2451L348.588 52.7583C348.511 50.9617 348.284 49.1994 347.904 47.4868L351.344 46.0468C352.311 45.6423 352.769 44.5246 352.368 43.5508L349.855 37.4754C349.453 36.5051 348.346 36.0457 347.379 36.4486L343.918 37.892C342.975 36.4126 341.909 35.0171 340.724 33.7263L343.011 30.7417C343.647 29.9103 343.491 28.7223 342.665 28.0863L337.496 24.1143C336.67 23.48 335.485 23.636 334.848 24.464L332.547 27.452C331.021 26.66 329.41 26.0017 327.728 25.4806L328.241 21.728C328.381 20.696 327.66 19.748 326.626 19.6126L320.168 18.7658C319.14 18.6338 318.185 19.3589 318.041 20.3926ZM295.274 51.0251C297.14 38.0377 309.06 28.9332 321.908 30.6183C334.757 32.3034 343.781 44.156 342.055 57.1605C340.318 70.2456 328.373 79.5285 315.384 77.8262C302.395 76.1222 293.396 64.0914 295.274 51.0251Z" fill="#D8DEE8"/>
<path d="M219.02 18.3421L218.204 24.1896C215.493 24.313 212.826 24.6627 210.23 25.2456L208.021 19.7907C207.417 18.3027 205.715 17.5964 204.218 18.2136L194.843 22.0759C193.343 22.6947 192.611 24.4038 193.211 25.897L195.433 31.4204C193.161 32.8673 191.013 34.5044 189.016 36.3198L184.302 32.6667C183.032 31.681 181.185 31.9261 180.181 33.2118L173.882 41.269C172.873 42.5598 173.087 44.4095 174.359 45.3987L179.085 49.0741C177.827 51.4381 176.768 53.9358 175.914 56.5398L169.916 55.7529C168.306 55.5421 166.806 56.6838 166.564 58.3055L165.057 68.4695C164.816 70.098 165.93 71.5912 167.545 71.802L173.56 72.5906C173.632 75.3335 173.93 78.0334 174.465 80.6597L168.82 83.0134C167.298 83.6477 166.55 85.398 167.15 86.9237L170.912 96.4808C171.513 98.0117 173.24 98.7368 174.765 98.0974L180.414 95.7334C181.833 98.0443 183.453 100.223 185.252 102.248L181.489 107.135C180.47 108.459 180.688 110.351 181.977 111.363L190.046 117.692C191.337 118.705 193.211 118.449 194.228 117.122L197.946 112.268C200.32 113.533 202.835 114.585 205.456 115.425L204.609 121.485C204.378 123.145 205.509 124.664 207.14 124.876L217.326 126.212C218.954 126.426 220.46 125.252 220.686 123.592L221.509 117.579C224.279 117.46 227.001 117.102 229.648 116.505L231.882 122.061C232.502 123.604 234.239 124.333 235.759 123.688L245.26 119.663C246.777 119.02 247.502 117.251 246.878 115.712L244.643 110.195C246.962 108.699 249.146 106.998 251.173 105.119L255.815 108.729C257.113 109.739 258.973 109.484 259.97 108.164L266.191 99.9163C267.184 98.5997 266.939 96.7191 265.643 95.7146L261.042 92.1488C262.297 89.7163 263.337 87.1483 264.163 84.4757L269.917 85.23C271.531 85.4426 273.011 84.2889 273.22 82.6569L274.526 72.4672C274.735 70.8403 273.597 69.3523 271.987 69.1415L266.251 68.3889C266.133 65.6118 265.783 62.8861 265.194 60.2392L270.515 58.0123C272.011 57.3866 272.719 55.6586 272.095 54.1535L268.209 44.7592C267.589 43.2592 265.876 42.5495 264.383 43.1718L259.033 45.4021C257.575 43.1135 255.925 40.957 254.095 38.9632L257.63 34.3484C258.614 33.0644 258.374 31.2267 257.094 30.2427L249.102 24.1021C247.825 23.1216 245.992 23.3633 245.006 24.6438L241.447 29.2638C239.087 28.0398 236.596 27.0216 233.997 26.2141L234.791 20.4113C235.009 18.8153 233.891 17.3513 232.295 17.1421L222.309 15.8324C220.717 15.6233 219.242 16.7461 219.02 18.3421ZM183.817 65.706C186.702 45.6249 205.132 31.5473 224.997 34.153C244.862 36.7587 258.815 55.0844 256.147 75.1929C253.463 95.4231 234.995 109.779 214.912 107.144C194.828 104.511 180.913 85.9071 183.817 65.706Z" fill="#D8DEE8"/>
<path d="M209.465 74.965L165.792 437.971C165.137 443.414 168.888 448.293 174.144 448.814L356.05 468.785C367.193 469.478 373.294 463.785 373.983 457.997L419.835 72.061C420.519 66.3061 415.052 61.093 403.861 61.093L220.301 64.9587C214.985 65.0496 210.116 69.5513 209.465 74.965Z" fill="url(#paint2_linear_177_304)"/>
<path d="M201.278 74.3412L157.365 439.163C156.706 444.633 160.471 449.538 165.744 450.062L354.329 468.839C360.241 469.427 365.66 465.15 366.351 459.333L412.46 71.4029C413.148 65.6172 408.805 60.9681 402.828 61.0692L212.152 64.287C206.82 64.3744 201.933 68.9001 201.278 74.3412Z" fill="url(#paint3_linear_177_304)"/>
<path d="M204.857 94.4629L164.155 432.725C163.539 437.835 167.066 442.409 172.001 442.889L349.359 460.13C354.855 460.664 359.891 456.672 360.536 451.256L403.148 92.8994C403.789 87.5132 399.757 83.1537 394.204 83.2137L215.026 85.1217C210.039 85.1732 205.469 89.3783 204.857 94.4629Z" fill="#D8DEE8"/>
<path d="M299.965 74.0886C299.732 76.0309 301.125 77.5857 303.08 77.56C305.036 77.536 306.812 75.9383 307.045 73.9926C307.278 72.0469 305.879 70.492 303.923 70.5212C301.967 70.5503 300.196 72.148 299.965 74.0886Z" fill="url(#paint4_linear_177_304)"/>
<path d="M235.519 321.526C271.827 254.397 326.069 234.302 342.399 165.117C351.226 127.72 345.212 91.9258 335.083 62.2105L402.829 61.067C408.807 60.9659 413.149 65.6168 412.462 71.4007L366.353 459.331C365.662 465.149 360.243 469.426 354.331 468.836L206.085 454.076C204.986 393.926 219.333 351.449 235.519 321.526Z" fill="white"/>
<path d="M22.2354 112.839C22.2354 77.1682 53.3513 48.2568 90.6918 48.2603C126.928 48.2637 155.526 75.6545 155.526 109.438C155.526 143.221 126.928 172.071 90.6918 173.924C53.3496 175.834 22.2354 148.51 22.2354 112.839Z" fill="url(#paint5_linear_177_304)"/>
<path d="M26.2607 109.995C26.2607 74.3244 56.4767 45.4131 92.7355 45.4165C127.923 45.4199 155.694 72.8107 155.694 106.594C155.694 140.377 127.923 169.227 92.7355 171.08C56.475 172.99 26.2607 145.664 26.2607 109.995Z" fill="url(#paint6_linear_177_304)"/>
<g opacity="0.5">
<path opacity="0.5" d="M36.6035 109.722C36.6035 79.7533 61.9886 55.4619 92.4531 55.467C122.016 55.4705 145.349 78.483 145.349 106.866C145.349 135.25 122.018 159.488 92.4531 161.045C61.9886 162.649 36.6035 139.691 36.6035 109.722Z" fill="white"/>
</g>
<path opacity="0.5" d="M90.3574 60.0716C119.92 60.075 143.253 83.0876 143.253 111.471C143.253 118.22 141.921 124.729 139.513 130.76C143.243 123.498 145.352 115.371 145.352 106.866C145.352 78.483 122.02 55.4705 92.4557 55.467C68.9597 55.4653 48.498 69.9202 40.3604 90.279C49.5746 72.3801 68.6751 60.0699 90.3574 60.0716Z" fill="white"/>
<path d="M67.1943 102.387V128.544C67.1943 136.106 73.556 142.071 81.38 141.867L100.781 141.361C108.51 141.159 114.757 134.931 114.757 127.448V101.568L67.1943 102.387ZM85.0606 129.428L88.6657 118.503C87.1211 117.706 86.0754 116.136 86.0754 114.307C86.0754 111.622 88.328 109.402 91.1017 109.351C93.872 109.298 96.116 111.427 96.116 114.106C96.116 115.932 95.0737 117.542 93.5343 118.402L97.1257 129.147L85.0606 129.428Z" fill="white"/>
<path d="M109.243 99.3001C107.184 99.3343 105.514 97.7418 105.514 95.7412C105.514 88.0527 99.0599 81.8812 91.1005 81.9841C83.1136 82.087 76.5942 88.4658 76.5942 96.2024C76.5942 98.2149 74.9022 99.8744 72.8125 99.9104C70.7211 99.9446 69.0239 98.3401 69.0239 96.3241C69.0239 84.5487 78.9548 74.8561 91.1022 74.7207C103.184 74.5853 112.964 83.9624 112.964 95.6246C112.964 97.6201 111.3 99.2658 109.243 99.3001Z" fill="white"/>
<path d="M154.177 248.488C154.177 248.488 152.857 243.54 153.793 242.275C154.727 241.01 160.444 235.953 159.896 237.602C159.346 239.251 158.521 240.35 158.521 240.35C158.521 240.35 161.6 241.78 159.62 243.922C157.642 246.067 156.98 246.561 156.87 248.486C156.762 250.411 155.497 251.071 154.177 248.488Z" fill="url(#paint7_linear_177_304)"/>
<path d="M99.2597 462.048C99.2597 462.048 98.5603 466.327 98.6495 467.849C98.7386 469.371 115.638 470.15 115.808 469.01C115.977 467.87 113.015 466.054 110.929 465.415C108.843 464.774 102.736 463.066 102.736 463.066L99.2597 462.048Z" fill="url(#paint8_linear_177_304)"/>
<path d="M103.361 457.783L102.823 463.104C102.823 463.104 100.86 464.402 99.1304 463.4L98.2646 457.61L103.361 457.783Z" fill="url(#paint9_linear_177_304)"/>
<path d="M69.1084 468.984C69.1084 468.984 68.4089 473.263 68.4981 474.785C68.5872 476.308 85.4866 477.086 85.6563 475.946C85.8278 474.806 82.8638 472.99 80.7775 472.351C78.6912 471.712 72.5849 470.002 72.5849 470.002L69.1084 468.984Z" fill="url(#paint10_linear_177_304)"/>
<path d="M73.2108 464.719L72.6725 470.04C72.6725 470.04 70.7097 471.338 68.98 470.337L68.1143 464.546L73.2108 464.719Z" fill="url(#paint11_linear_177_304)"/>
<path d="M100.295 318.881C102.248 322.841 104.202 326.801 106.155 330.761C107.725 353.361 108.507 377.937 108.005 404.218C107.631 423.771 106.587 442.294 105.085 459.68C102.437 459.559 99.7881 459.437 97.1395 459.315C93.3098 451.714 88.7892 440.199 88.3726 425.984C87.9389 411.158 92.4338 409.188 92.1492 394.992C91.7789 376.591 84.0629 371.681 79.9521 349.548C78.3801 341.083 77.3224 330.028 78.579 316.615C85.8184 317.371 93.0561 318.127 100.295 318.881Z" fill="url(#paint12_linear_177_304)"/>
<path opacity="0.3" d="M78.5807 316.615C82.4893 317.023 86.3978 317.431 90.3081 317.839C97.3452 330.084 99.3098 342.828 98.0738 348.466C96.327 356.443 91.7052 358.997 91.9607 367.005C92.2127 374.928 96.8807 376.983 99.8412 386.321C101.892 392.787 101.35 398.733 100.184 410.359C97.8355 433.778 92.1801 440.94 96.9167 448.618C98.2624 450.8 100.688 453.398 105.44 455.381C105.323 456.818 105.209 458.258 105.087 459.679C102.438 459.559 99.7898 459.435 97.1412 459.315C93.3115 451.714 88.791 440.199 88.3744 425.984C87.9407 411.158 92.4355 409.188 92.151 394.992C91.7807 376.591 84.0647 371.683 79.9538 349.55C78.3818 341.085 77.3224 330.029 78.5807 316.615Z" fill="url(#paint13_linear_177_304)"/>
<path d="M89.7854 326.011C86.1185 346.007 82.8803 367.406 80.3534 390.101C77.302 417.504 75.6734 443.339 75.034 467.323C72.1266 467.405 69.2208 467.488 66.3134 467.57C54.8586 444.909 54.1592 429.545 55.81 419.543C56.446 415.689 58.1757 408.131 58.57 396.833C58.8443 388.96 58.342 382.967 57.7146 375.763C56.3397 359.97 54.67 356.522 54.43 344.442C54.2037 333.103 54.1575 327.367 57.394 324.019C65.9209 315.196 88.1037 325.23 89.7854 326.011Z" fill="url(#paint14_linear_177_304)"/>
<path d="M152.657 247.726C154.591 247.59 156.523 247.457 158.457 247.321C163.017 265.751 159.746 283.628 149.453 290.202C133.372 300.474 103.483 281.122 97.0065 260.048C94.1642 250.798 94.8105 237.45 100.493 234.857C102.07 234.137 104.518 234.025 109.821 237.001C125.656 245.891 126.072 262.695 134.122 264.118C137.698 264.752 143.479 262.47 152.657 247.726Z" fill="url(#paint15_linear_177_304)"/>
<path d="M108.38 334.815C111.166 330.194 107.667 325.737 106.871 316.982C105.97 307.058 109.792 305.405 113.572 288.96C116.087 278.023 118.499 267.523 115.619 255.232C114.239 249.341 111.898 239.351 103.628 234.525C99.361 232.034 93.5341 232.284 82.057 232.884C67.8628 233.627 60.7674 233.997 55.4736 236.784C54.6988 237.192 38.5983 245.951 37.4891 260.227C36.3611 274.757 52.1839 276.71 54.2942 296.086C55.2422 304.785 53.5536 318.163 52.4582 326.839C51.4074 335.17 50.6822 337.303 52.3279 339.826C56.2914 345.907 68.4233 344.174 92.6873 340.709C102.205 339.348 106.3 338.265 108.38 334.815Z" fill="url(#paint16_linear_177_304)"/>
<path d="M71.4605 292.968C70.4336 296.745 66.7445 299.565 64.1765 308.752C63.6228 310.735 59.6714 324.859 64.7954 328.336C67.7542 330.343 70.4113 326.539 77.5942 326.042C90.0399 325.181 95.9696 335.642 104.1 332.784C105.511 332.287 107.373 331.231 109.233 328.804C109.603 330.991 109.54 332.892 108.381 334.817C106.303 338.267 102.206 339.35 92.6884 340.709C68.4245 344.174 56.2925 345.907 52.3291 339.827C50.6851 337.305 51.4085 335.171 52.4594 326.839C53.5548 318.161 55.2434 304.783 54.2954 296.087C52.1851 276.71 36.3606 274.758 37.4903 260.227C37.792 256.343 39.22 252.885 41.1314 249.873C61.2039 257.995 74.685 281.1 71.4605 292.968Z" fill="url(#paint17_linear_177_304)"/>
<path d="M46.1089 321.549L50.1254 324.113C50.8472 323.28 52.5169 321.6 55.1226 321.028C58.0591 320.381 61.4311 321.309 61.5083 322.245C61.5717 322.996 59.518 323.753 59.2009 323.87C56.638 324.816 54.7369 324.029 53.7014 325.06C53.3346 325.423 52.8786 326.102 51.8277 326.729C51.5517 326.894 51.2637 327.04 51.1112 327.1C49.4003 327.765 46.4672 324.787 46.2152 324.527L46.1089 321.549Z" fill="url(#paint18_linear_177_304)"/>
<path d="M57.9736 268.876C60.8793 261.917 62.8918 251.263 58.3027 235.442C28.0662 247.356 12.6462 275.601 18.6668 297.989C23.6296 316.447 41.6879 325.437 45.7164 327.329C46.6542 325.195 47.5919 323.063 48.5279 320.93C43.8599 315.732 38.5987 308.045 39.3427 299.273C40.3747 287.112 52.0919 282.962 57.9736 268.876Z" fill="url(#paint19_linear_177_304)"/>
<path d="M81.313 218.57C81.313 218.57 81.0748 223.859 79.4325 227.821C77.9479 231.4 70.1445 233.651 68.5622 234.45C66.9799 235.249 71.5262 237.585 76.0913 238.043C80.6565 238.502 93.6919 237.465 96.0421 235.735C98.3924 234.006 94.153 234.136 90.8959 232.939C87.637 231.743 85.753 225.371 86.329 222.479C86.905 219.585 81.313 218.57 81.313 218.57Z" fill="url(#paint20_linear_177_304)"/>
<path d="M88.5334 216.652C90.9025 214.324 91.2334 214.053 91.4905 213.249C92.526 210.021 90.0214 205.598 86.7368 204.51C86.5654 204.453 84.3626 203.748 83.5226 204.703C82.8077 205.514 83.8586 206.635 83.3597 208.2C82.8917 209.664 81.6231 209.774 79.2694 211.694C77.3306 213.275 76.1271 214.259 75.8494 215.642C75.2769 218.493 78.7277 222.624 81.7826 222.513C82.8814 222.472 83.1814 221.911 88.5334 216.652Z" fill="url(#paint21_linear_177_304)"/>
<path d="M82.0837 222.954C82.0837 222.954 84.602 225.805 88.4369 224.862C91.8706 224.019 90.9946 216.136 88.4814 214.878C87.6431 214.458 86.1192 214.492 84.974 215.044C84.2969 215.37 84.1083 215.709 82.9923 216.22C81.9637 216.692 81.6363 216.627 81.3603 216.959C81.014 217.374 80.8649 218.269 81.95 220.425C81.1683 219.872 80.3266 219.755 79.8106 220.122C79.7283 220.18 79.5192 220.386 79.4283 220.655C79.1009 221.631 80.1157 222.623 82.0837 222.954Z" fill="url(#paint22_linear_177_304)"/>
<path d="M369.271 116.231L370.157 121.015L351.912 121.058L193.581 121.434C189.508 121.444 185.762 124.811 185.203 128.954L147.407 381.559C146.844 385.74 153.352 392.122 157.401 392.434L227.644 397.832V397.747L332.715 405.807C332.717 405.807 332.719 405.807 332.721 405.807L332.974 405.914C337.461 406.26 341.577 403.004 342.159 398.588C342.159 398.587 342.159 398.607 342.161 398.606L377.558 128.906C378.134 124.531 373.783 116.219 369.271 116.231Z" fill="url(#paint23_linear_177_304)"/>
<path d="M338.58 393.332C338 397.75 333.886 401.052 329.4 400.707L153.645 387.212C149.597 386.902 146.781 383.261 147.343 379.08L181.702 123.789C182.259 119.646 186.005 116.279 190.075 116.267L366.822 115.78C371.333 115.768 374.532 119.304 373.959 123.679L338.58 393.332Z" fill="url(#paint24_linear_177_304)"/>
<path d="M340.914 252.937C340.626 255.125 338.583 256.757 336.351 256.674L181.666 251.029C179.624 250.955 178.188 249.274 178.469 247.184L181.51 224.643C181.791 222.555 183.654 221.142 185.698 221.199L340.518 225.498C342.754 225.56 344.336 227.139 344.05 229.325L340.914 252.937Z" fill="white"/>
<path d="M334.926 298.738C334.638 300.93 332.593 302.801 330.361 302.689L175.792 295.054C173.752 294.953 172.333 293 172.614 290.909L175.679 267.932C175.96 265.842 177.841 264.051 179.883 264.133L334.545 270.372C336.777 270.462 338.356 272.482 338.068 274.671L334.926 298.738Z" fill="white"/>
<path opacity="0.1" d="M344.062 229.234C343.695 229.116 343.301 229.051 342.881 229.039L188.057 224.741C186.015 224.683 184.15 226.099 183.872 228.181L180.826 250.722C180.819 250.781 180.814 250.836 180.809 250.894C179.239 250.452 178.229 248.964 178.465 247.181L181.512 224.64C181.789 222.557 183.655 221.139 185.696 221.199L340.52 225.497C342.716 225.562 344.291 227.091 344.062 229.234Z" fill="url(#paint25_linear_177_304)"/>
<path opacity="0.1" d="M338.1 274.164C337.728 274.016 337.327 273.927 336.902 273.91L182.243 267.67C180.201 267.588 178.317 269.382 178.039 271.472L174.969 294.45C174.952 294.598 174.94 294.74 174.94 294.888C173.369 294.38 172.372 292.692 172.608 290.909L175.679 267.93C175.956 265.841 177.839 264.046 179.882 264.128L334.541 270.368C336.607 270.457 338.105 272.18 338.1 274.164Z" fill="url(#paint26_linear_177_304)"/>
<path d="M293.817 335.861C294.273 332.403 291.828 329.218 288.354 329.018L208.339 324.423C205.026 324.233 201.966 327.024 201.515 330.391L198.213 355.279C197.762 358.651 200.061 361.877 203.373 362.103L283.346 367.575C286.819 367.813 290.018 364.88 290.476 361.417L293.817 335.861Z" fill="url(#paint27_linear_177_304)"/>
<path d="M299.86 168.181C298.806 176.137 294.719 183.318 288.907 188.6C282.645 194.296 274.396 197.763 265.818 197.596C257.282 197.432 250.098 193.703 245.485 187.88C241.23 182.512 239.145 175.36 240.189 167.538C242.361 151.264 257.313 138.109 273.721 138.149C290.284 138.185 302.051 151.63 299.86 168.181Z" fill="url(#paint28_linear_177_304)"/>
<path d="M283.904 159.138C282.958 166.266 276.379 171.978 269.235 171.892C262.121 171.807 257.139 166 258.08 158.924C259.023 151.849 265.536 146.142 272.654 146.175C279.802 146.207 284.851 152.01 283.904 159.138Z" fill="white"/>
<path d="M288.909 188.6C282.647 194.297 274.398 197.763 265.819 197.597C257.284 197.432 250.099 193.703 245.486 187.88C250.766 180.524 259.475 175.631 268.723 175.751C278.022 175.871 285.517 181.025 288.909 188.6Z" fill="white"/>
<path opacity="0.4" d="M373.958 123.679L338.58 393.332C338.001 397.748 333.624 401.031 329.14 400.686L223.579 392.581C218.565 387.447 214.435 381.286 211.488 373.892C210.042 370.266 208.982 366.354 208.278 362.24C206.318 350.854 207.078 337.911 209.935 325.206C212.133 315.426 215.579 305.771 219.99 297.059C223.518 290.094 227.666 283.726 232.3 278.374C235.636 274.522 239.244 270.78 243.05 267.109C247.639 262.68 252.516 258.356 257.548 254.072C269.272 244.083 281.825 234.317 293.448 224.004C320.266 200.213 342.024 173.629 336.789 135.699C336.621 134.504 334.987 125.355 332.899 115.872L366.561 115.779C371.069 115.767 374.532 119.306 373.958 123.679Z" fill="white"/>
</g>
<defs>
<filter id="filter0_d_177_304" x="0" y="0" width="488.535" height="488" filterUnits="userSpaceOnUse" color-interpolation-filters="sRGB">
<feFlood flood-opacity="0" result="BackgroundImageFix"/>
<feColorMatrix in="SourceAlpha" type="matrix" values="0 0 0 0 0 0 0 0 0 0 0 0 0 0 0 0 0 0 127 0" result="hardAlpha"/>
<feOffset dy="4"/>
<feGaussianBlur stdDeviation="2"/>
<feComposite in2="hardAlpha" operator="out"/>
<feColorMatrix type="matrix" values="0 0 0 0 0 0 0 0 0 0 0 0 0 0 0 0 0 0 0.25 0"/>
<feBlend mode="normal" in2="BackgroundImageFix" result="effect1_dropShadow_177_304"/>
<feBlend mode="normal" in="SourceGraphic" in2="effect1_dropShadow_177_304" result="shape"/>
</filter>
<linearGradient id="paint0_linear_177_304" x1="325.429" y1="346.219" x2="450.638" y2="8.05554" gradientUnits="userSpaceOnUse">
<stop offset="0.00359712" stop-color="#E38DDD"/>
<stop offset="1" stop-color="#9571F6"/>
</linearGradient>
<linearGradient id="paint1_linear_177_304" x1="232.738" y1="312.834" x2="475.605" y2="312.834" gradientUnits="userSpaceOnUse">
<stop stop-color="#FF9085"/>
<stop offset="1" stop-color="#FB6FBB"/>
</linearGradient>
<linearGradient id="paint2_linear_177_304" x1="295.064" y1="255.58" x2="366.752" y2="263.4" gradientUnits="userSpaceOnUse">
<stop stop-color="#444B8C"/>
<stop offset="0.9964" stop-color="#26264F"/>
</linearGradient>
<linearGradient id="paint3_linear_177_304" x1="231.9" y1="74.8765" x2="409.163" y2="678.355" gradientUnits="userSpaceOnUse">
<stop stop-color="#444B8C"/>
<stop offset="0.9964" stop-color="#26264F"/>
</linearGradient>
<linearGradient id="paint4_linear_177_304" x1="298.324" y1="60.0117" x2="506.656" y2="624.246" gradientUnits="userSpaceOnUse">
<stop stop-color="#FFC444"/>
<stop offset="0.9964" stop-color="#F36F56"/>
</linearGradient>
<linearGradient id="paint5_linear_177_304" x1="-1521.81" y1="1629.92" x2="-1379.31" y2="1495.55" gradientUnits="userSpaceOnUse">
<stop stop-color="#311944"/>
<stop offset="1" stop-color="#893976"/>
</linearGradient>
<linearGradient id="paint6_linear_177_304" x1="47.6676" y1="147.553" x2="161.858" y2="43.9286" gradientUnits="userSpaceOnUse">
<stop stop-color="#FF9085"/>
<stop offset="1" stop-color="#FB6FBB"/>
</linearGradient>
<linearGradient id="paint7_linear_177_304" x1="163.362" y1="237.657" x2="140.733" y2="260.69" gradientUnits="userSpaceOnUse">
<stop stop-color="#FFC444"/>
<stop offset="0.9964" stop-color="#F36F56"/>
</linearGradient>
<linearGradient id="paint8_linear_177_304" x1="107.272" y1="456.44" x2="107.463" y2="405.343" gradientUnits="userSpaceOnUse">
<stop stop-color="#AA80F9"/>
<stop offset="0.9964" stop-color="#6165D7"/>
</linearGradient>
<linearGradient id="paint9_linear_177_304" x1="102.211" y1="472.86" x2="99.7777" y2="446.456" gradientUnits="userSpaceOnUse">
<stop stop-color="#FFC444"/>
<stop offset="0.9964" stop-color="#F36F56"/>
</linearGradient>
<linearGradient id="paint10_linear_177_304" x1="77.1481" y1="456.328" x2="77.3388" y2="405.231" gradientUnits="userSpaceOnUse">
<stop stop-color="#AA80F9"/>
<stop offset="0.9964" stop-color="#6165D7"/>
</linearGradient>
<linearGradient id="paint11_linear_177_304" x1="71.6801" y1="475.673" x2="69.247" y2="449.269" gradientUnits="userSpaceOnUse">
<stop stop-color="#FFC444"/>
<stop offset="0.9964" stop-color="#F36F56"/>
</linearGradient>
<linearGradient id="paint12_linear_177_304" x1="101.287" y1="339.819" x2="82.5576" y2="435.572" gradientUnits="userSpaceOnUse">
<stop stop-color="#311944"/>
<stop offset="1" stop-color="#893976"/>
</linearGradient>
<linearGradient id="paint13_linear_177_304" x1="110.634" y1="386.641" x2="82.4952" y2="388.897" gradientUnits="userSpaceOnUse">
<stop stop-color="#311944"/>
<stop offset="1" stop-color="#893976"/>
</linearGradient>
<linearGradient id="paint14_linear_177_304" x1="95.0701" y1="391.934" x2="52.3534" y2="395.358" gradientUnits="userSpaceOnUse">
<stop stop-color="#311944"/>
<stop offset="1" stop-color="#893976"/>
</linearGradient>
<linearGradient id="paint15_linear_177_304" x1="128.811" y1="250.944" x2="97.2075" y2="453.911" gradientUnits="userSpaceOnUse">
<stop stop-color="#AA80F9"/>
<stop offset="0.9964" stop-color="#6165D7"/>
</linearGradient>
<linearGradient id="paint16_linear_177_304" x1="61.5946" y1="473.729" x2="46.309" y2="678.572" gradientUnits="userSpaceOnUse">
<stop stop-color="#AA80F9"/>
<stop offset="0.9964" stop-color="#6165D7"/>
</linearGradient>
<linearGradient id="paint17_linear_177_304" x1="9.62579" y1="403.886" x2="93.9892" y2="259.378" gradientUnits="userSpaceOnUse">
<stop stop-color="#AA80F9"/>
<stop offset="0.9964" stop-color="#6165D7"/>
</linearGradient>
<linearGradient id="paint18_linear_177_304" x1="39.5322" y1="303.97" x2="57.3251" y2="328.006" gradientUnits="userSpaceOnUse">
<stop stop-color="#FFC444"/>
<stop offset="0.9964" stop-color="#F36F56"/>
</linearGradient>
<linearGradient id="paint19_linear_177_304" x1="24.249" y1="470.943" x2="8.96346" y2="675.786" gradientUnits="userSpaceOnUse">
<stop stop-color="#AA80F9"/>
<stop offset="0.9964" stop-color="#6165D7"/>
</linearGradient>
<linearGradient id="paint20_linear_177_304" x1="90.0601" y1="244.076" x2="72.9312" y2="222.764" gradientUnits="userSpaceOnUse">
<stop stop-color="#FFC444"/>
<stop offset="0.9964" stop-color="#F36F56"/>
</linearGradient>
<linearGradient id="paint21_linear_177_304" x1="77.0354" y1="236.248" x2="86.114" y2="206.382" gradientUnits="userSpaceOnUse">
<stop stop-color="#444B8C"/>
<stop offset="0.9964" stop-color="#3E4177"/>
</linearGradient>
<linearGradient id="paint22_linear_177_304" x1="100.189" y1="225.827" x2="74.6532" y2="214.46" gradientUnits="userSpaceOnUse">
<stop stop-color="#FFC444"/>
<stop offset="0.9964" stop-color="#F36F56"/>
</linearGradient>
<linearGradient id="paint23_linear_177_304" x1="147.373" y1="261.086" x2="377.61" y2="261.086" gradientUnits="userSpaceOnUse">
<stop stop-color="#311944"/>
<stop offset="1" stop-color="#893976"/>
</linearGradient>
<linearGradient id="paint24_linear_177_304" x1="287.349" y1="713.919" x2="259.897" y2="238.393" gradientUnits="userSpaceOnUse">
<stop offset="0.003597" stop-color="#F36F56"/>
<stop offset="1" stop-color="#FFC444"/>
</linearGradient>
<linearGradient id="paint25_linear_177_304" x1="178.431" y1="236.047" x2="344.083" y2="236.047" gradientUnits="userSpaceOnUse">
<stop offset="0.003597" stop-color="#F36F56"/>
<stop offset="1" stop-color="#FFC444"/>
</linearGradient>
<linearGradient id="paint26_linear_177_304" x1="172.575" y1="279.507" x2="338.1" y2="279.507" gradientUnits="userSpaceOnUse">
<stop offset="0.003597" stop-color="#F36F56"/>
<stop offset="1" stop-color="#FFC444"/>
</linearGradient>
<linearGradient id="paint27_linear_177_304" x1="253.935" y1="295.554" x2="216.933" y2="530.202" gradientUnits="userSpaceOnUse">
<stop offset="0.003597" stop-color="#F36F56"/>
<stop offset="1" stop-color="#FFC444"/>
</linearGradient>
<linearGradient id="paint28_linear_177_304" x1="266.107" y1="51.2416" x2="274.009" y2="286.558" gradientUnits="userSpaceOnUse">
<stop offset="0.003597" stop-color="#F36F56"/>
<stop offset="1" stop-color="#FFC444"/>
</linearGradient>
</defs>
</svg>
